<svg width="2000px" height="762px"
 viewBox="0.00 0.00 1031.53 393.05" xmlns="http://www.w3.org/2000/svg" xmlns:xlink="http://www.w3.org/1999/xlink">
<g id="graph0" class="graph" transform="scale(1.0 1.0) rotate(0) translate(4 389.05)">
<title>ContextMapGraph</title>
<polygon fill="white" stroke="transparent" points="-4,4 -4,-389.05 1027.53,-389.05 1027.53,4 -4,4"/>
<!-- EmpleadosContext -->
<g id="node1" class="node">
<title>EmpleadosContext</title>
<polygon fill="none" stroke="black" stroke-width="2" points="797.48,-153.92 805.15,-152.39 812.98,-150.98 820.92,-149.69 828.95,-148.52 837.05,-147.49 845.17,-146.58 853.29,-145.82 861.38,-145.19 869.41,-144.72 877.36,-144.39 885.19,-144.21 892.9,-144.18 900.44,-144.3 907.8,-144.58 914.96,-145.01 921.9,-145.58 928.6,-146.3 935.06,-147.17 941.25,-148.18 947.16,-149.33 952.78,-150.61 958.11,-152.01 963.13,-153.54 967.85,-155.19 972.25,-156.94 976.34,-158.8 980.11,-160.75 983.56,-162.79 986.7,-164.9 989.52,-167.09 992.02,-169.34 994.22,-171.65 996.11,-174 997.7,-176.39 998.98,-178.8 999.98,-181.24 1000.68,-183.69 1001.11,-186.14 1001.25,-188.58 1001.12,-191.02 1000.71,-193.43 1000.04,-195.81 999.11,-198.16 997.92,-200.47 996.48,-202.72 994.78,-204.93 992.83,-207.07 990.64,-209.15 988.2,-211.17 985.52,-213.1 982.59,-214.96 979.42,-216.74 976.01,-218.43 972.37,-220.04 968.48,-221.56 964.36,-222.99 960.01,-224.32 955.42,-225.56 950.6,-226.7 945.56,-227.75 940.29,-228.71 934.8,-229.56 929.1,-230.32 923.2,-230.98 917.09,-231.55 910.8,-232.02 904.32,-232.39 897.68,-232.67 890.87,-232.86 883.92,-232.95 876.85,-232.95 869.66,-232.85 862.37,-232.67 855.01,-232.39 847.59,-232.03 840.14,-231.57 832.68,-231.03 825.23,-230.4 817.81,-229.68 810.45,-228.88 803.19,-227.99 796.03,-227.02 789.02,-225.96 782.18,-224.82 775.53,-223.6 769.1,-222.3 762.93,-220.92 757.03,-219.46 751.44,-217.93 746.18,-216.32 741.27,-214.64 736.74,-212.89 732.6,-211.07 728.89,-209.19 725.61,-207.25 722.79,-205.24 720.44,-203.19 718.58,-201.08 717.21,-198.93 716.34,-196.73 715.98,-194.5 716.14,-192.24 716.82,-189.95 718,-187.64 719.71,-185.33 721.91,-183 724.62,-180.67 727.81,-178.36 731.48,-176.05 735.61,-173.77 740.18,-171.52 745.17,-169.31 750.57,-167.14 756.34,-165.03 762.47,-162.98 768.93,-161 775.69,-159.09 782.72,-157.27 790,-155.55 797.48,-153.92"/>
<text text-anchor="middle" x="869.68" y="-187.47" font-family="sans-serif" font-size="16.00">EmpleadosContext</text>
</g>
<!-- InventarioContext -->
<g id="node2" class="node">
<title>InventarioContext</title>
<polygon fill="none" stroke="black" stroke-width="2" points="85,-8.33 92.64,-6.93 100.42,-5.65 108.29,-4.48 116.23,-3.45 124.21,-2.54 132.19,-1.77 140.15,-1.14 148.06,-0.65 155.89,-0.3 163.61,-0.11 171.2,-0.06 178.64,-0.15 185.9,-0.4 192.96,-0.8 199.8,-1.35 206.41,-2.04 212.76,-2.87 218.85,-3.85 224.66,-4.96 230.18,-6.21 235.4,-7.58 240.32,-9.08 244.92,-10.69 249.21,-12.42 253.18,-14.25 256.83,-16.18 260.15,-18.19 263.16,-20.29 265.84,-22.47 268.21,-24.71 270.27,-27 272.02,-29.35 273.47,-31.74 274.62,-34.15 275.47,-36.6 276.04,-39.05 276.33,-41.52 276.34,-43.98 276.09,-46.43 275.57,-48.86 274.79,-51.27 273.76,-53.65 272.49,-55.99 270.97,-58.28 269.21,-60.52 267.22,-62.7 265,-64.81 262.55,-66.86 259.87,-68.84 256.97,-70.73 253.85,-72.55 250.51,-74.28 246.95,-75.92 243.17,-77.47 239.18,-78.92 234.97,-80.28 230.55,-81.55 225.93,-82.71 221.09,-83.78 216.06,-84.75 210.82,-85.61 205.39,-86.38 199.77,-87.05 193.96,-87.61 187.98,-88.08 181.83,-88.44 175.52,-88.71 169.06,-88.88 162.46,-88.95 155.74,-88.93 148.91,-88.81 141.99,-88.6 134.99,-88.29 127.93,-87.9 120.83,-87.41 113.71,-86.83 106.59,-86.16 99.5,-85.41 92.46,-84.57 85.49,-83.64 78.62,-82.63 71.87,-81.54 65.27,-80.36 58.85,-79.11 52.63,-77.78 46.64,-76.37 40.9,-74.88 35.44,-73.32 30.29,-71.69 25.47,-70 21,-68.23 16.91,-66.4 13.21,-64.51 9.93,-62.57 7.08,-60.56 4.68,-58.51 2.74,-56.41 1.28,-54.27 0.3,-52.09 -0.18,-49.88 -0.17,-47.64 0.35,-45.37 1.36,-43.09 2.88,-40.8 4.9,-38.51 7.4,-36.21 10.38,-33.93 13.84,-31.66 17.75,-29.41 22.1,-27.2 26.87,-25.02 32.04,-22.88 37.6,-20.8 43.51,-18.78 49.75,-16.83 56.3,-14.95 63.13,-13.15 70.21,-11.45 77.51,-9.84 85,-8.33"/>
<text text-anchor="middle" x="148.68" y="-43.14" font-family="sans-serif" font-size="16.00">InventarioContext</text>
</g>
<!-- MenuContext -->
<g id="node3" class="node">
<title>MenuContext</title>
<polygon fill="none" stroke="black" stroke-width="2" points="321.16,-147.78 328.09,-147.27 335.03,-146.88 341.94,-146.62 348.81,-146.49 355.6,-146.48 362.28,-146.6 368.84,-146.85 375.24,-147.24 381.47,-147.75 387.5,-148.38 393.31,-149.15 398.88,-150.04 404.2,-151.05 409.25,-152.19 414.02,-153.44 418.48,-154.8 422.65,-156.27 426.5,-157.85 430.02,-159.53 433.22,-161.3 436.09,-163.17 438.63,-165.12 440.84,-167.14 442.72,-169.24 444.27,-171.4 445.5,-173.62 446.42,-175.9 447.03,-178.21 447.33,-180.56 447.34,-182.94 447.07,-185.34 446.52,-187.76 445.71,-190.18 444.65,-192.6 443.35,-195.01 441.81,-197.41 440.06,-199.78 438.1,-202.11 435.95,-204.42 433.61,-206.67 431.09,-208.88 428.41,-211.03 425.57,-213.11 422.58,-215.12 419.46,-217.06 416.2,-218.92 412.81,-220.69 409.31,-222.37 405.7,-223.96 401.98,-225.45 398.15,-226.84 394.23,-228.12 390.21,-229.3 386.1,-230.37 381.9,-231.33 377.61,-232.17 373.24,-232.9 368.79,-233.51 364.27,-234 359.66,-234.38 354.99,-234.65 350.25,-234.79 345.44,-234.82 340.57,-234.74 335.65,-234.54 330.68,-234.23 325.67,-233.81 320.63,-233.28 315.55,-232.64 310.46,-231.9 305.37,-231.06 300.27,-230.12 295.2,-229.08 290.15,-227.94 285.14,-226.72 280.19,-225.41 275.32,-224.01 270.53,-222.54 265.85,-220.99 261.29,-219.36 256.87,-217.66 252.62,-215.9 248.54,-214.08 244.66,-212.2 241,-210.27 237.57,-208.29 234.4,-206.27 231.5,-204.21 228.88,-202.11 226.58,-199.98 224.59,-197.82 222.94,-195.65 221.64,-193.46 220.71,-191.26 220.14,-189.05 219.96,-186.85 220.16,-184.64 220.76,-182.45 221.77,-180.28 223.17,-178.13 224.97,-176 227.17,-173.9 229.77,-171.85 232.76,-169.83 236.13,-167.87 239.86,-165.96 243.96,-164.11 248.4,-162.32 253.17,-160.61 258.25,-158.97 263.62,-157.41 269.26,-155.94 275.15,-154.56 281.26,-153.27 287.57,-152.08 294.05,-151 300.68,-150.02 307.42,-149.16 314.26,-148.41 321.16,-147.78"/>
<text text-anchor="middle" x="338.68" y="-187.47" font-family="sans-serif" font-size="16.00">MenuContext</text>
</g>
<!-- MenuContext&#45;&gt;InventarioContext -->
<g id="edge1" class="edge">
<title>MenuContext&#45;&gt;InventarioContext</title>
<path fill="none" stroke="black" stroke-width="2" d="M287.52,-151.94C260.7,-131.85 227.91,-107.29 200.93,-87.08"/>
<text text-anchor="middle" x="325.18" y="-115.29" font-family="sans-serif" font-size="12.00"> &#160;&#160;&#160;&#160;&#160;&#160;&#160;&#160;&#160;&#160;&#160;&#160;&#160;&#160;&#160;&#160;&#160;&#160;&#160;&#160;&#160;&#160;&#160;&#160;&#160;&#160;&#160;&#160;&#160;&#160;&#160;&#160;&#160;&#160;&#160;&#160;&#160;&#160;&#160;</text>
<polygon fill="white" stroke="transparent" points="193.93,-78.08 193.93,-95.08 207.93,-95.08 207.93,-78.08 193.93,-78.08"/>
<text text-anchor="start" x="195.93" y="-83.48" font-family="sans-serif" font-size="12.00">D</text>
<polygon fill="white" stroke="transparent" points="263.52,-141.94 263.52,-160.94 279.52,-160.94 279.52,-141.94 263.52,-141.94"/>
<polyline fill="none" stroke="black" points="279.52,-141.94 279.52,-160.94 "/>
<text text-anchor="start" x="266.52" y="-148.34" font-family="sans-serif" font-size="12.00">U</text>
<polygon fill="white" stroke="transparent" points="279.52,-141.94 279.52,-160.94 312.52,-160.94 312.52,-141.94 279.52,-141.94"/>
<polygon fill="none" stroke="black" points="279.52,-141.94 279.52,-160.94 312.52,-160.94 312.52,-141.94 279.52,-141.94"/>
<text text-anchor="start" x="282.52" y="-148.34" font-family="sans-serif" font-size="12.00">OHS</text>
</g>
<!-- OrdenesContext -->
<g id="node4" class="node">
<title>OrdenesContext</title>
<polygon fill="none" stroke="black" stroke-width="2" points="417.03,-377.47 409.47,-376.46 402.08,-375.34 394.89,-374.12 387.94,-372.8 381.25,-371.39 374.85,-369.89 368.76,-368.3 363.01,-366.64 357.62,-364.91 352.61,-363.11 348,-361.25 343.8,-359.33 340.03,-357.35 336.7,-355.34 333.82,-353.28 331.39,-351.19 329.43,-349.07 327.92,-346.92 326.88,-344.76 326.3,-342.58 326.17,-340.4 326.49,-338.21 327.24,-336.03 328.43,-333.86 330.03,-331.69 332.03,-329.55 334.41,-327.43 337.16,-325.34 340.27,-323.27 343.7,-321.25 347.44,-319.27 351.47,-317.33 355.77,-315.44 360.32,-313.6 365.09,-311.83 370.06,-310.11 375.21,-308.46 380.52,-306.88 385.97,-305.38 391.54,-303.95 397.21,-302.6 402.95,-301.34 408.76,-300.16 414.61,-299.07 420.49,-298.08 426.39,-297.18 432.28,-296.38 438.16,-295.68 444.01,-295.08 449.83,-294.59 455.61,-294.21 461.33,-293.94 466.98,-293.78 472.57,-293.73 478.09,-293.79 483.53,-293.97 488.88,-294.27 494.15,-294.68 499.32,-295.2 504.4,-295.84 509.38,-296.59 514.26,-297.46 519.03,-298.43 523.7,-299.52 528.25,-300.72 532.7,-302.02 537.02,-303.42 541.22,-304.92 545.29,-306.52 549.23,-308.22 553.03,-310 556.67,-311.86 560.17,-313.8 563.5,-315.82 566.66,-317.91 569.63,-320.05 572.41,-322.26 574.99,-324.51 577.35,-326.81 579.48,-329.14 581.38,-331.5 583.02,-333.89 584.4,-336.29 585.5,-338.69 586.31,-341.1 586.82,-343.5 587.01,-345.88 586.88,-348.24 586.42,-350.57 585.61,-352.86 584.45,-355.1 582.93,-357.29 581.04,-359.43 578.78,-361.49 576.14,-363.49 573.13,-365.4 569.75,-367.23 565.98,-368.96 561.85,-370.6 557.36,-372.14 552.51,-373.57 547.31,-374.89 541.78,-376.1 535.93,-377.18 529.77,-378.15 523.33,-378.99 516.62,-379.71 509.67,-380.3 502.49,-380.76 495.12,-381.1 487.59,-381.3 479.9,-381.37 472.11,-381.32 464.24,-381.14 456.31,-380.83 448.36,-380.39 440.43,-379.84 432.54,-379.17 424.73,-378.37 417.03,-377.47"/>
<text text-anchor="middle" x="462.68" y="-333.05" font-family="sans-serif" font-size="16.00">OrdenesContext</text>
</g>
<!-- OrdenesContext&#45;&gt;EmpleadosContext -->
<g id="edge4" class="edge">
<title>OrdenesContext&#45;&gt;EmpleadosContext</title>
<path fill="none" stroke="black" stroke-width="2" d="M545.54,-306.62C613.29,-282.72 708.96,-248.97 778.81,-224.33"/>
<text text-anchor="middle" x="754.18" y="-261.05" font-family="sans-serif" font-size="12.00"> &#160;&#160;&#160;&#160;&#160;&#160;&#160;&#160;&#160;&#160;&#160;&#160;&#160;&#160;&#160;&#160;&#160;&#160;&#160;&#160;&#160;&#160;&#160;&#160;&#160;&#160;&#160;&#160;&#160;&#160;&#160;&#160;&#160;&#160;&#160;&#160;&#160;&#160;&#160;</text>
<polygon fill="white" stroke="transparent" points="771.81,-215.33 771.81,-232.33 785.81,-232.33 785.81,-215.33 771.81,-215.33"/>
<text text-anchor="start" x="773.81" y="-220.73" font-family="sans-serif" font-size="12.00">D</text>
<polygon fill="white" stroke="transparent" points="521.54,-296.62 521.54,-315.62 537.54,-315.62 537.54,-296.62 521.54,-296.62"/>
<polyline fill="none" stroke="black" points="537.54,-296.62 537.54,-315.62 "/>
<text text-anchor="start" x="524.54" y="-303.02" font-family="sans-serif" font-size="12.00">U</text>
<polygon fill="white" stroke="transparent" points="537.54,-296.62 537.54,-315.62 570.54,-315.62 570.54,-296.62 537.54,-296.62"/>
<polygon fill="none" stroke="black" points="537.54,-296.62 537.54,-315.62 570.54,-315.62 570.54,-296.62 537.54,-296.62"/>
<text text-anchor="start" x="540.54" y="-303.02" font-family="sans-serif" font-size="12.00">OHS</text>
</g>
<!-- OrdenesContext&#45;&gt;InventarioContext -->
<g id="edge3" class="edge">
<title>OrdenesContext&#45;&gt;InventarioContext</title>
<path fill="none" stroke="black" stroke-width="2" d="M351.54,-317.04C269.27,-300.58 167.21,-273.96 141.68,-239.65 109.37,-196.24 120.9,-130.69 133.63,-88.61"/>
<text text-anchor="middle" x="176.18" y="-188.17" font-family="sans-serif" font-size="12.00">Partnership</text>
</g>
<!-- OrdenesContext&#45;&gt;MenuContext -->
<g id="edge5" class="edge">
<title>OrdenesContext&#45;&gt;MenuContext</title>
<path fill="none" stroke="black" stroke-width="2" d="M406.68,-300.26C395.51,-291.49 384.51,-281.48 375.68,-270.65 367.03,-260.04 359.85,-247.07 354.19,-234.76"/>
<text text-anchor="middle" x="451.18" y="-261.05" font-family="sans-serif" font-size="12.00"> &#160;&#160;&#160;&#160;&#160;&#160;&#160;&#160;&#160;&#160;&#160;&#160;&#160;&#160;&#160;&#160;&#160;&#160;&#160;&#160;&#160;&#160;&#160;&#160;&#160;&#160;&#160;&#160;&#160;&#160;&#160;&#160;&#160;&#160;&#160;&#160;&#160;&#160;&#160;</text>
<polygon fill="white" stroke="transparent" points="347.19,-225.76 347.19,-242.76 361.19,-242.76 361.19,-225.76 347.19,-225.76"/>
<text text-anchor="start" x="349.19" y="-231.16" font-family="sans-serif" font-size="12.00">D</text>
<polygon fill="white" stroke="transparent" points="382.68,-290.26 382.68,-309.26 398.68,-309.26 398.68,-290.26 382.68,-290.26"/>
<polyline fill="none" stroke="black" points="398.68,-290.26 398.68,-309.26 "/>
<text text-anchor="start" x="385.68" y="-296.66" font-family="sans-serif" font-size="12.00">U</text>
<polygon fill="white" stroke="transparent" points="398.68,-290.26 398.68,-309.26 431.68,-309.26 431.68,-290.26 398.68,-290.26"/>
<polygon fill="none" stroke="black" points="398.68,-290.26 398.68,-309.26 431.68,-309.26 431.68,-290.26 398.68,-290.26"/>
<text text-anchor="start" x="401.68" y="-296.66" font-family="sans-serif" font-size="12.00">OHS</text>
</g>
<!-- PagosContext -->
<g id="node5" class="node">
<title>PagosContext</title>
<polygon fill="none" stroke="black" stroke-width="2" points="483.8,-175.82 486.23,-173.13 488.93,-170.49 491.89,-167.93 495.1,-165.44 498.55,-163.05 502.22,-160.76 506.11,-158.57 510.2,-156.51 514.48,-154.57 518.93,-152.76 523.55,-151.1 528.31,-149.58 533.21,-148.21 538.23,-147 543.36,-145.94 548.59,-145.05 553.89,-144.31 559.27,-143.74 564.69,-143.34 570.15,-143.09 575.65,-143.01 581.15,-143.08 586.65,-143.31 592.14,-143.69 597.61,-144.22 603.03,-144.89 608.4,-145.7 613.71,-146.64 618.95,-147.7 624.1,-148.88 629.14,-150.17 634.08,-151.56 638.9,-153.05 643.59,-154.63 648.13,-156.28 652.52,-158.01 656.75,-159.81 660.8,-161.66 664.68,-163.56 668.36,-165.51 671.84,-167.49 675.11,-169.51 678.16,-171.54 680.99,-173.59 683.58,-175.66 685.93,-177.73 688.03,-179.8 689.88,-181.87 691.47,-183.93 692.79,-185.98 693.84,-188.02 694.62,-190.04 695.11,-192.04 695.32,-194.02 695.24,-195.97 694.88,-197.9 694.22,-199.8 693.28,-201.67 692.04,-203.51 690.51,-205.32 688.7,-207.1 686.6,-208.84 684.21,-210.54 681.55,-212.22 678.61,-213.85 675.41,-215.45 671.94,-217 668.23,-218.51 664.26,-219.98 660.07,-221.41 655.65,-222.78 651.01,-224.11 646.18,-225.38 641.16,-226.59 635.96,-227.74 630.6,-228.83 625.1,-229.86 619.47,-230.81 613.73,-231.69 607.9,-232.48 601.99,-233.19 596.01,-233.82 590,-234.35 583.96,-234.78 577.92,-235.11 571.9,-235.33 565.91,-235.44 559.97,-235.44 554.11,-235.31 548.33,-235.07 542.66,-234.69 537.13,-234.19 531.73,-233.56 526.5,-232.8 521.45,-231.9 516.59,-230.87 511.94,-229.7 507.51,-228.4 503.32,-226.97 499.39,-225.4 495.71,-223.71 492.31,-221.89 489.19,-219.96 486.36,-217.9 483.84,-215.74 481.62,-213.48 479.71,-211.11 478.11,-208.66 476.84,-206.13 475.89,-203.53 475.26,-200.86 474.96,-198.15 474.97,-195.39 475.31,-192.6 475.96,-189.78 476.93,-186.96 478.2,-184.15 479.78,-181.34 481.64,-178.56 483.8,-175.82"/>
<text text-anchor="middle" x="586.68" y="-187.47" font-family="sans-serif" font-size="16.00">PagosContext</text>
</g>
<!-- OrdenesContext&#45;&gt;PagosContext -->
<g id="edge2" class="edge">
<title>OrdenesContext&#45;&gt;PagosContext</title>
<path fill="none" stroke="black" stroke-width="2" d="M506.71,-295.97C514.96,-287.86 523.3,-279.19 530.68,-270.65 540.1,-259.78 549.5,-247.36 557.85,-235.67"/>
<text text-anchor="middle" x="576.18" y="-261.05" font-family="sans-serif" font-size="12.00">Partnership</text>
</g>
<!-- ReservasContext -->
<g id="node6" class="node">
<title>ReservasContext</title>
<polygon fill="none" stroke="black" stroke-width="2" points="748.74,-322.75 751.29,-320.01 754.15,-317.32 757.33,-314.7 760.8,-312.15 764.55,-309.7 768.58,-307.34 772.87,-305.09 777.4,-302.95 782.17,-300.94 787.15,-299.06 792.34,-297.32 797.72,-295.73 803.26,-294.28 808.97,-292.99 814.81,-291.86 820.78,-290.88 826.86,-290.07 833.04,-289.42 839.29,-288.94 845.61,-288.61 851.97,-288.45 858.36,-288.45 864.77,-288.61 871.18,-288.91 877.57,-289.37 883.94,-289.97 890.25,-290.7 896.51,-291.57 902.69,-292.57 908.78,-293.68 914.77,-294.91 920.64,-296.24 926.39,-297.67 931.98,-299.19 937.42,-300.8 942.69,-302.47 947.78,-304.22 952.67,-306.03 957.36,-307.89 961.83,-309.79 966.07,-311.74 970.07,-313.72 973.82,-315.72 977.3,-317.75 980.52,-319.79 983.46,-321.84 986.11,-323.89 988.47,-325.95 990.52,-328 992.26,-330.05 993.69,-332.08 994.79,-334.1 995.57,-336.11 996.01,-338.1 996.12,-340.06 995.9,-342.01 995.33,-343.93 994.42,-345.82 993.17,-347.69 991.58,-349.53 989.66,-351.34 987.4,-353.13 984.8,-354.88 981.88,-356.6 978.64,-358.28 975.09,-359.93 971.22,-361.54 967.06,-363.12 962.62,-364.65 957.89,-366.14 952.9,-367.59 947.66,-368.98 942.18,-370.33 936.48,-371.62 930.56,-372.86 924.46,-374.03 918.18,-375.13 911.75,-376.17 905.18,-377.13 898.49,-378.02 891.7,-378.81 884.83,-379.53 877.91,-380.14 870.95,-380.66 863.98,-381.08 857.01,-381.38 850.07,-381.58 843.18,-381.66 836.36,-381.62 829.63,-381.45 823.02,-381.16 816.54,-380.73 810.22,-380.17 804.07,-379.47 798.12,-378.64 792.37,-377.67 786.86,-376.56 781.59,-375.32 776.59,-373.93 771.86,-372.41 767.42,-370.76 763.29,-368.98 759.48,-367.08 755.99,-365.05 752.84,-362.91 750.03,-360.66 747.58,-358.31 745.48,-355.87 743.75,-353.34 742.38,-350.74 741.38,-348.06 740.75,-345.33 740.49,-342.56 740.59,-339.75 741.07,-336.91 741.9,-334.06 743.09,-331.2 744.63,-328.36 746.51,-325.54 748.74,-322.75"/>
<text text-anchor="middle" x="869.68" y="-333.05" font-family="sans-serif" font-size="16.00">ReservasContext</text>
</g>
<!-- ReservasContext&#45;&gt;EmpleadosContext -->
<g id="edge6" class="edge">
<title>ReservasContext&#45;&gt;EmpleadosContext</title>
<path fill="none" stroke="black" stroke-width="2" d="M869.68,-288.84C869.68,-270.85 869.68,-250.49 869.68,-233.12"/>
<text text-anchor="middle" x="945.18" y="-261.05" font-family="sans-serif" font-size="12.00"> &#160;&#160;&#160;&#160;&#160;&#160;&#160;&#160;&#160;&#160;&#160;&#160;&#160;&#160;&#160;&#160;&#160;&#160;&#160;&#160;&#160;&#160;&#160;&#160;&#160;&#160;&#160;&#160;&#160;&#160;&#160;&#160;&#160;&#160;&#160;&#160;&#160;&#160;&#160;</text>
<polygon fill="white" stroke="transparent" points="862.68,-224.12 862.68,-241.12 876.68,-241.12 876.68,-224.12 862.68,-224.12"/>
<text text-anchor="start" x="864.68" y="-229.52" font-family="sans-serif" font-size="12.00">D</text>
<polygon fill="white" stroke="transparent" points="845.68,-278.84 845.68,-297.84 861.68,-297.84 861.68,-278.84 845.68,-278.84"/>
<polyline fill="none" stroke="black" points="861.68,-278.84 861.68,-297.84 "/>
<text text-anchor="start" x="848.68" y="-285.24" font-family="sans-serif" font-size="12.00">U</text>
<polygon fill="white" stroke="transparent" points="861.68,-278.84 861.68,-297.84 894.68,-297.84 894.68,-278.84 861.68,-278.84"/>
<polygon fill="none" stroke="black" points="861.68,-278.84 861.68,-297.84 894.68,-297.84 894.68,-278.84 861.68,-278.84"/>
<text text-anchor="start" x="864.68" y="-285.24" font-family="sans-serif" font-size="12.00">OHS</text>
</g>
</g>
</svg>
